<?xml version="1.0" encoding="utf-8" ?>
<!DOCTYPE svg PUBLIC '-//W3C//DTD SVG 20001102//EN' 'http://www.w3.org/TR/2000/CR-SVG-20001102/DTD/svg-20001102.dtd'>
<svg height="871" width="1127" xmlns="http://www.w3.org/2000/svg">
<rect height="104" style="fill:#ffffff; stroke:#ffffff; stroke-width:1" width="226" x="14" y="246"/>
<rect height="2" style="fill:#ffffff; stroke:#ffffff; stroke-width:1" width="226" x="14" y="246"/>
<rect height="2" style="fill: none; stroke:#000000; stroke-width:1" width="226" x="14" y="246"/>
<rect height="20" style="fill:#ffffff; stroke:#ffffff; stroke-width:1" width="226" x="14" y="248"/>
<text style="font-family:Dialog; font-size:10;" x="101" y="261">
Calculador</text>
<rect height="60" style="fill:#ffffff; stroke:#ffffff; stroke-width:1" width="225" x="15" y="290"/>
<line style="fill:#000000; stroke:#000000; stroke-width:1" x1="15" x2="240" y1="290" y2="290"/>
<text style="font-family:Dialog; font-size:10;" x="18" y="304">
calcularEnergiaPacman(accion : String) : Float</text>
<text style="font-family:Dialog; font-size:10;" x="18" y="317">
calcularPerformance(accion : String) : void</text>
<text style="font-family:Dialog; font-size:10;" x="18" y="330">
getPerformance() : Float</text>
<text style="font-family:Dialog; font-size:10;" x="18" y="343">
inicicializarEnemigo() : Vector</text>
<rect height="20" style="fill:#ffffff; stroke:#ffffff; stroke-width:1" width="225" x="15" y="269"/>
<line style="fill:#000000; stroke:#000000; stroke-width:1" x1="15" x2="240" y1="269" y2="269"/>
<rect height="104" style="fill: none; stroke:#000000; stroke-width:1" width="226" x="14" y="246"/>
<rect height="65" style="fill:#ffffff; stroke:#ffffff; stroke-width:1" width="142" x="358" y="254"/>
<rect height="2" style="fill:#ffffff; stroke:#ffffff; stroke-width:1" width="142" x="358" y="254"/>
<rect height="2" style="fill: none; stroke:#000000; stroke-width:1" width="142" x="358" y="254"/>
<rect height="20" style="fill:#ffffff; stroke:#ffffff; stroke-width:1" width="142" x="358" y="256"/>
<text style="font-family:Dialog; font-size:10;" x="405" y="269">
Simulador</text>
<rect height="21" style="fill:#ffffff; stroke:#ffffff; stroke-width:1" width="141" x="359" y="298"/>
<line style="fill:#000000; stroke:#000000; stroke-width:1" x1="359" x2="500" y1="298" y2="298"/>
<text style="font-family:Dialog; font-size:10;" x="362" y="312">
comenzarSimulacion() : void</text>
<rect height="20" style="fill:#ffffff; stroke:#ffffff; stroke-width:1" width="141" x="359" y="277"/>
<line style="fill:#000000; stroke:#000000; stroke-width:1" x1="359" x2="500" y1="277" y2="277"/>
<rect height="65" style="fill: none; stroke:#000000; stroke-width:1" width="142" x="358" y="254"/>
<rect height="91" style="fill:#ffffff; stroke:#ffffff; stroke-width:1" width="135" x="502" y="94"/>
<rect height="2" style="fill:#ffffff; stroke:#ffffff; stroke-width:1" width="135" x="502" y="94"/>
<rect height="2" style="fill: none; stroke:#000000; stroke-width:1" width="135" x="502" y="94"/>
<rect height="20" style="fill:#ffffff; stroke:#ffffff; stroke-width:1" width="135" x="502" y="96"/>
<text style="font-family:Dialog; font-size:10;" x="543" y="109">
Percepción</text>
<rect height="20" style="fill:#ffffff; stroke:#ffffff; stroke-width:1" width="134" x="503" y="165"/>
<line style="fill:#000000; stroke:#000000; stroke-width:1" x1="503" x2="637" y1="165" y2="165"/>
<rect height="47" style="fill:#ffffff; stroke:#ffffff; stroke-width:1" width="134" x="503" y="117"/>
<line style="fill:#000000; stroke:#000000; stroke-width:1" x1="503" x2="637" y1="117" y2="117"/>
<text style="font-family:Dialog; font-size:10;" x="506" y="131">
celdasAdyacentes : Matriz</text>
<text style="font-family:Dialog; font-size:10;" x="506" y="144">
energia : Float</text>
<text style="font-family:Dialog; font-size:10;" x="506" y="157">
posicionInicial : int</text>
<rect height="91" style="fill: none; stroke:#000000; stroke-width:1" width="135" x="502" y="94"/>
<polyline points="240,294 358,294" style="fill:none; stroke:#000000; stroke-width:1"/>
<line style="fill:#000000; stroke:#000000; stroke-width:1" x1="346" x2="358" y1="301" y2="294"/>
<line style="fill:#000000; stroke:#000000; stroke-width:1" x1="346" x2="358" y1="287" y2="294"/>
<text style="font-family:Dialog; font-size:10;" x="252" y="284">
1</text>
<text style="font-family:Dialog; font-size:10;" x="340" y="284">
1</text>
<line style="fill:#000000; stroke:#000000; stroke-width:1" x1="500" x2="500" y1="254" y2="249"/>
<line style="fill:#000000; stroke:#000000; stroke-width:1" x1="500" x2="500" y1="244" y2="239"/>
<line style="fill:#000000; stroke:#000000; stroke-width:1" x1="500" x2="500" y1="234" y2="229"/>
<line style="fill:#000000; stroke:#000000; stroke-width:1" x1="500" x2="501" y1="224" y2="219"/>
<line style="fill:#000000; stroke:#000000; stroke-width:1" x1="501" x2="501" y1="214" y2="209"/>
<line style="fill:#000000; stroke:#000000; stroke-width:1" x1="501" x2="501" y1="204" y2="199"/>
<line style="fill:#000000; stroke:#000000; stroke-width:1" x1="501" x2="501" y1="194" y2="189"/>
<line style="fill:#000000; stroke:#000000; stroke-width:1" x1="508" x2="502" y1="197" y2="185"/>
<line style="fill:#000000; stroke:#000000; stroke-width:1" x1="494" x2="502" y1="196" y2="185"/>
<text style="font-family:Dialog; font-size:10;" x="541" y="231">
&lt;&lt;crea&gt;&gt;</text>
<rect height="79" style="fill:#ffffff; stroke:#ffffff; stroke-width:1" width="154" x="654" y="254"/>
<rect height="2" style="fill:#ffffff; stroke:#ffffff; stroke-width:1" width="154" x="654" y="254"/>
<rect height="2" style="fill: none; stroke:#000000; stroke-width:1" width="154" x="654" y="254"/>
<rect height="20" style="fill:#ffffff; stroke:#ffffff; stroke-width:1" width="154" x="654" y="256"/>
<text style="font-family:Dialog; font-size:10;" x="713" y="269">
Agente</text>
<rect height="27" style="fill:#ffffff; stroke:#ffffff; stroke-width:1" width="153" x="655" y="305"/>
<line style="fill:#000000; stroke:#000000; stroke-width:1" x1="655" x2="808" y1="305" y2="305"/>
<text style="font-family:Dialog; font-size:10;" x="658" y="319">
actuar(p : Percepcion) : Accion</text>
<rect height="27" style="fill:#ffffff; stroke:#ffffff; stroke-width:1" width="153" x="655" y="277"/>
<line style="fill:#000000; stroke:#000000; stroke-width:1" x1="655" x2="808" y1="277" y2="277"/>
<rect height="79" style="fill: none; stroke:#000000; stroke-width:1" width="154" x="654" y="254"/>
<line style="fill:#000000; stroke:#000000; stroke-width:1" x1="654" x2="653" y1="254" y2="250"/>
<line style="fill:#000000; stroke:#000000; stroke-width:1" x1="652" x2="651" y1="245" y2="240"/>
<line style="fill:#000000; stroke:#000000; stroke-width:1" x1="650" x2="649" y1="235" y2="230"/>
<line style="fill:#000000; stroke:#000000; stroke-width:1" x1="647" x2="646" y1="225" y2="220"/>
<line style="fill:#000000; stroke:#000000; stroke-width:1" x1="645" x2="644" y1="216" y2="211"/>
<line style="fill:#000000; stroke:#000000; stroke-width:1" x1="643" x2="641" y1="206" y2="201"/>
<line style="fill:#000000; stroke:#000000; stroke-width:1" x1="640" x2="639" y1="196" y2="191"/>
<line style="fill:#000000; stroke:#000000; stroke-width:1" x1="638" x2="637" y1="186" y2="185"/>
<line style="fill:#000000; stroke:#000000; stroke-width:1" x1="646" x2="637" y1="194" y2="185"/>
<line style="fill:#000000; stroke:#000000; stroke-width:1" x1="633" x2="637" y1="198" y2="185"/>
<text style="font-family:Dialog; font-size:10;" x="689" y="228">
&lt;&lt;usa&gt;&gt;</text>
<rect height="64" style="fill:#ffffff; stroke:#ffffff; stroke-width:1" width="90" x="862" y="414"/>
<rect height="2" style="fill:#ffffff; stroke:#ffffff; stroke-width:1" width="90" x="862" y="414"/>
<rect height="2" style="fill: none; stroke:#000000; stroke-width:1" width="90" x="862" y="414"/>
<rect height="20" style="fill:#ffffff; stroke:#ffffff; stroke-width:1" width="90" x="862" y="416"/>
<text style="font-family:Dialog; font-size:10;" x="883" y="429">
Búsqueda</text>
<rect height="20" style="fill:#ffffff; stroke:#ffffff; stroke-width:1" width="89" x="863" y="458"/>
<line style="fill:#000000; stroke:#000000; stroke-width:1" x1="863" x2="952" y1="458" y2="458"/>
<rect height="20" style="fill:#ffffff; stroke:#ffffff; stroke-width:1" width="89" x="863" y="437"/>
<line style="fill:#000000; stroke:#000000; stroke-width:1" x1="863" x2="952" y1="437" y2="437"/>
<rect height="64" style="fill: none; stroke:#000000; stroke-width:1" width="90" x="862" y="414"/>
<line style="fill:#000000; stroke:#000000; stroke-width:1" x1="742" x2="742" y1="333" y2="338"/>
<line style="fill:#000000; stroke:#000000; stroke-width:1" x1="742" x2="742" y1="343" y2="348"/>
<line style="fill:#000000; stroke:#000000; stroke-width:1" x1="742" x2="742" y1="353" y2="358"/>
<line style="fill:#000000; stroke:#000000; stroke-width:1" x1="742" x2="742" y1="363" y2="368"/>
<line style="fill:#000000; stroke:#000000; stroke-width:1" x1="742" x2="742" y1="373" y2="378"/>
<line style="fill:#000000; stroke:#000000; stroke-width:1" x1="742" x2="742" y1="383" y2="388"/>
<line style="fill:#000000; stroke:#000000; stroke-width:1" x1="742" x2="742" y1="393" y2="398"/>
<line style="fill:#000000; stroke:#000000; stroke-width:1" x1="742" x2="742" y1="403" y2="408"/>
<line style="fill:#000000; stroke:#000000; stroke-width:1" x1="742" x2="742" y1="413" y2="418"/>
<line style="fill:#000000; stroke:#000000; stroke-width:1" x1="742" x2="742" y1="423" y2="428"/>
<line style="fill:#000000; stroke:#000000; stroke-width:1" x1="742" x2="742" y1="433" y2="438"/>
<line style="fill:#000000; stroke:#000000; stroke-width:1" x1="742" x2="742" y1="443" y2="446"/>
<line style="fill:#000000; stroke:#000000; stroke-width:1" x1="742" x2="747" y1="446" y2="446"/>
<line style="fill:#000000; stroke:#000000; stroke-width:1" x1="752" x2="757" y1="446" y2="446"/>
<line style="fill:#000000; stroke:#000000; stroke-width:1" x1="762" x2="767" y1="446" y2="446"/>
<line style="fill:#000000; stroke:#000000; stroke-width:1" x1="772" x2="777" y1="446" y2="446"/>
<line style="fill:#000000; stroke:#000000; stroke-width:1" x1="782" x2="787" y1="446" y2="446"/>
<line style="fill:#000000; stroke:#000000; stroke-width:1" x1="792" x2="797" y1="446" y2="446"/>
<line style="fill:#000000; stroke:#000000; stroke-width:1" x1="802" x2="807" y1="446" y2="446"/>
<line style="fill:#000000; stroke:#000000; stroke-width:1" x1="812" x2="817" y1="446" y2="446"/>
<line style="fill:#000000; stroke:#000000; stroke-width:1" x1="822" x2="827" y1="446" y2="446"/>
<line style="fill:#000000; stroke:#000000; stroke-width:1" x1="832" x2="837" y1="446" y2="446"/>
<line style="fill:#000000; stroke:#000000; stroke-width:1" x1="842" x2="847" y1="446" y2="446"/>
<line style="fill:#000000; stroke:#000000; stroke-width:1" x1="852" x2="857" y1="446" y2="446"/>
<line style="fill:#000000; stroke:#000000; stroke-width:1" x1="850" x2="862" y1="453" y2="446"/>
<line style="fill:#000000; stroke:#000000; stroke-width:1" x1="850" x2="862" y1="439" y2="446"/>
<text style="font-family:Dialog; font-size:10;" x="737" y="435">
&lt;&lt;usa&gt;&gt;</text>
<rect height="87" style="fill:#ffffff; stroke:#ffffff; stroke-width:1" width="160" x="494" y="406"/>
<rect height="15" style="fill:#ffffff; stroke:#ffffff; stroke-width:1" width="160" x="494" y="406"/>
<rect height="15" style="fill: none; stroke:#000000; stroke-width:1" width="160" x="494" y="406"/>
<text style="font-family:Dialog; font-size:10;" x="536" y="420">
&lt;&lt;interface&gt;&gt;</text>
<rect height="20" style="fill:#ffffff; stroke:#ffffff; stroke-width:1" width="160" x="494" y="421"/>
<text style="font-family:Dialog; font-size:10;" x="558" y="434">
Accion</text>
<rect height="50" style="fill:#ffffff; stroke:#ffffff; stroke-width:1" width="159" x="495" y="442"/>
<line style="fill:#000000; stroke:#000000; stroke-width:1" x1="495" x2="654" y1="442" y2="442"/>
<text style="font-family:Dialog; font-size:10;" x="498" y="456">
ejecutar(amb : Ambiente) : void</text>
<text style="font-family:Dialog; font-size:10;" x="498" y="469">
getTipoAccion() : String</text>
<text style="font-family:Dialog; font-size:10;" x="498" y="482">
GetInstance() : Accion</text>
<rect height="87" style="fill: none; stroke:#000000; stroke-width:1" width="160" x="494" y="406"/>
<rect height="105" style="fill:#ffffff; stroke:#ffffff; stroke-width:1" width="176" x="286" y="566"/>
<rect height="2" style="fill:#ffffff; stroke:#ffffff; stroke-width:1" width="176" x="286" y="566"/>
<rect height="2" style="fill: none; stroke:#000000; stroke-width:1" width="176" x="286" y="566"/>
<rect height="20" style="fill:#ffffff; stroke:#ffffff; stroke-width:1" width="176" x="286" y="568"/>
<text style="font-family:Dialog; font-size:10; font-style:italic;" x="354" y="581">
Avanzar</text>
<rect height="53" style="fill:#ffffff; stroke:#ffffff; stroke-width:1" width="175" x="287" y="617"/>
<line style="fill:#000000; stroke:#000000; stroke-width:1" x1="287" x2="462" y1="617" y2="617"/>
<text style="font-family:Dialog; font-size:10;" x="290" y="631">
GetInstance() : Accion</text>
<text style="font-family:Dialog; font-size:10;" x="290" y="644">
ejecutar(amb : Ambiente) : void</text>
<text style="font-family:Dialog; font-size:10;" x="290" y="657">
getTipoAccion() : String</text>
<rect height="27" style="fill:#ffffff; stroke:#ffffff; stroke-width:1" width="175" x="287" y="589"/>
<line style="fill:#000000; stroke:#000000; stroke-width:1" x1="287" x2="462" y1="589" y2="589"/>
<line style="fill:#000000; stroke:#000000; stroke-width:1" x1="290" x2="380" y1="604" y2="604"/>
<text style="font-family:Dialog; font-size:10;" x="290" y="603">
instance : Avanzar</text>
<rect height="105" style="fill: none; stroke:#000000; stroke-width:1" width="176" x="286" y="566"/>
<line style="fill:#000000; stroke:#000000; stroke-width:1" x1="462" x2="464" y1="566" y2="562"/>
<line style="fill:#000000; stroke:#000000; stroke-width:1" x1="466" x2="468" y1="557" y2="553"/>
<line style="fill:#000000; stroke:#000000; stroke-width:1" x1="470" x2="472" y1="548" y2="543"/>
<line style="fill:#000000; stroke:#000000; stroke-width:1" x1="474" x2="476" y1="539" y2="534"/>
<line style="fill:#000000; stroke:#000000; stroke-width:1" x1="478" x2="480" y1="530" y2="525"/>
<line style="fill:#000000; stroke:#000000; stroke-width:1" x1="482" x2="484" y1="520" y2="516"/>
<line style="fill:#000000; stroke:#000000; stroke-width:1" x1="486" x2="488" y1="511" y2="506"/>
<line style="fill:#000000; stroke:#000000; stroke-width:1" x1="490" x2="492" y1="502" y2="497"/>
<polygon points="494,493 495,506 482,501" style="fill:#ffffff; stroke:#ffffff; stroke-width:1"/>
<polygon points="494,493 495,506 482,501" style="fill:none; stroke:#000000; stroke-width:1"/>
<text style="font-family:Dialog; font-size:10;" x="510" y="533">
&lt;&lt;realize&gt;&gt;</text>
<rect height="80" style="fill:#ffffff; stroke:#ffffff; stroke-width:1" width="160" x="518" y="566"/>
<rect height="2" style="fill:#ffffff; stroke:#ffffff; stroke-width:1" width="160" x="518" y="566"/>
<rect height="2" style="fill: none; stroke:#000000; stroke-width:1" width="160" x="518" y="566"/>
<rect height="20" style="fill:#ffffff; stroke:#ffffff; stroke-width:1" width="160" x="518" y="568"/>
<text style="font-family:Dialog; font-size:10;" x="582" y="581">
Pelear</text>
<rect height="34" style="fill:#ffffff; stroke:#ffffff; stroke-width:1" width="159" x="519" y="611"/>
<line style="fill:#000000; stroke:#000000; stroke-width:1" x1="519" x2="678" y1="611" y2="611"/>
<text style="font-family:Dialog; font-size:10;" x="522" y="625">
ejecutar(amb : Ambiente) : void</text>
<text style="font-family:Dialog; font-size:10;" x="522" y="638">
getTipoAccion() : String</text>
<rect height="21" style="fill:#ffffff; stroke:#ffffff; stroke-width:1" width="159" x="519" y="589"/>
<line style="fill:#000000; stroke:#000000; stroke-width:1" x1="519" x2="678" y1="589" y2="589"/>
<rect height="80" style="fill: none; stroke:#000000; stroke-width:1" width="160" x="518" y="566"/>
<line style="fill:#000000; stroke:#000000; stroke-width:1" x1="566" x2="566" y1="566" y2="561"/>
<line style="fill:#000000; stroke:#000000; stroke-width:1" x1="566" x2="566" y1="556" y2="551"/>
<line style="fill:#000000; stroke:#000000; stroke-width:1" x1="566" x2="566" y1="546" y2="541"/>
<line style="fill:#000000; stroke:#000000; stroke-width:1" x1="566" x2="566" y1="536" y2="531"/>
<line style="fill:#000000; stroke:#000000; stroke-width:1" x1="566" x2="566" y1="526" y2="521"/>
<line style="fill:#000000; stroke:#000000; stroke-width:1" x1="566" x2="566" y1="516" y2="511"/>
<line style="fill:#000000; stroke:#000000; stroke-width:1" x1="566" x2="566" y1="506" y2="501"/>
<line style="fill:#000000; stroke:#000000; stroke-width:1" x1="566" x2="566" y1="496" y2="493"/>
<polygon points="566,493 573,505 559,505" style="fill:#ffffff; stroke:#ffffff; stroke-width:1"/>
<polygon points="566,493 573,505 559,505" style="fill:none; stroke:#000000; stroke-width:1"/>
<text style="font-family:Dialog; font-size:10;" x="603" y="543">
&lt;&lt;realize&gt;&gt;</text>
<rect height="78" style="fill:#ffffff; stroke:#ffffff; stroke-width:1" width="159" x="702" y="566"/>
<rect height="2" style="fill:#ffffff; stroke:#ffffff; stroke-width:1" width="159" x="702" y="566"/>
<rect height="2" style="fill: none; stroke:#000000; stroke-width:1" width="159" x="702" y="566"/>
<rect height="20" style="fill:#ffffff; stroke:#ffffff; stroke-width:1" width="159" x="702" y="568"/>
<text style="font-family:Dialog; font-size:10;" x="765" y="581">
Comer</text>
<rect height="34" style="fill:#ffffff; stroke:#ffffff; stroke-width:1" width="158" x="703" y="610"/>
<line style="fill:#000000; stroke:#000000; stroke-width:1" x1="703" x2="861" y1="610" y2="610"/>
<text style="font-family:Dialog; font-size:10;" x="706" y="624">
ejecutar(amb : Ambiente) : void</text>
<text style="font-family:Dialog; font-size:10;" x="706" y="637">
getTipoAccion() : String</text>
<rect height="20" style="fill:#ffffff; stroke:#ffffff; stroke-width:1" width="158" x="703" y="589"/>
<line style="fill:#000000; stroke:#000000; stroke-width:1" x1="703" x2="861" y1="589" y2="589"/>
<rect height="78" style="fill: none; stroke:#000000; stroke-width:1" width="159" x="702" y="566"/>
<line style="fill:#000000; stroke:#000000; stroke-width:1" x1="702" x2="700" y1="566" y2="562"/>
<line style="fill:#000000; stroke:#000000; stroke-width:1" x1="697" x2="694" y1="558" y2="554"/>
<line style="fill:#000000; stroke:#000000; stroke-width:1" x1="691" x2="689" y1="550" y2="546"/>
<line style="fill:#000000; stroke:#000000; stroke-width:1" x1="686" x2="683" y1="541" y2="537"/>
<line style="fill:#000000; stroke:#000000; stroke-width:1" x1="680" x2="678" y1="533" y2="529"/>
<line style="fill:#000000; stroke:#000000; stroke-width:1" x1="675" x2="672" y1="525" y2="520"/>
<line style="fill:#000000; stroke:#000000; stroke-width:1" x1="669" x2="667" y1="516" y2="512"/>
<line style="fill:#000000; stroke:#000000; stroke-width:1" x1="664" x2="661" y1="508" y2="504"/>
<line style="fill:#000000; stroke:#000000; stroke-width:1" x1="658" x2="656" y1="499" y2="495"/>
<polygon points="654,493 666,499 654,506" style="fill:#ffffff; stroke:#ffffff; stroke-width:1"/>
<polygon points="654,493 666,499 654,506" style="fill:none; stroke:#000000; stroke-width:1"/>
<text style="font-family:Dialog; font-size:10;" x="706" y="530">
&lt;&lt;realize&gt;&gt;</text>
<rect height="91" style="fill:#ffffff; stroke:#ffffff; stroke-width:1" width="176" x="30" y="766"/>
<rect height="2" style="fill:#ffffff; stroke:#ffffff; stroke-width:1" width="176" x="30" y="766"/>
<rect height="2" style="fill: none; stroke:#000000; stroke-width:1" width="176" x="30" y="766"/>
<rect height="20" style="fill:#ffffff; stroke:#ffffff; stroke-width:1" width="176" x="30" y="768"/>
<text style="font-family:Dialog; font-size:10;" x="84" y="781">
AvanzarAbajo</text>
<rect height="47" style="fill:#ffffff; stroke:#ffffff; stroke-width:1" width="175" x="31" y="810"/>
<line style="fill:#000000; stroke:#000000; stroke-width:1" x1="31" x2="206" y1="810" y2="810"/>
<text style="font-family:Dialog; font-size:10;" x="34" y="824">
&lt;&lt;create&gt;&gt; AvanzarAbajo() : void</text>
<text style="font-family:Dialog; font-size:10;" x="34" y="837">
ejecutar(amb : Ambiente) : void</text>
<text style="font-family:Dialog; font-size:10;" x="34" y="850">
getTipoAccion() : String</text>
<rect height="20" style="fill:#ffffff; stroke:#ffffff; stroke-width:1" width="175" x="31" y="789"/>
<line style="fill:#000000; stroke:#000000; stroke-width:1" x1="31" x2="206" y1="789" y2="789"/>
<rect height="91" style="fill: none; stroke:#000000; stroke-width:1" width="176" x="30" y="766"/>
<polyline points="126,766 126,726 382,726 382,671" style="fill:none; stroke:#000000; stroke-width:1"/>
<polygon points="382,671 389,683 375,683" style="fill:#ffffff; stroke:#ffffff; stroke-width:1"/>
<polygon points="382,671 389,683 375,683" style="fill:none; stroke:#000000; stroke-width:1"/>
<rect height="91" style="fill:#ffffff; stroke:#ffffff; stroke-width:1" width="188" x="222" y="766"/>
<rect height="2" style="fill:#ffffff; stroke:#ffffff; stroke-width:1" width="188" x="222" y="766"/>
<rect height="2" style="fill: none; stroke:#000000; stroke-width:1" width="188" x="222" y="766"/>
<rect height="20" style="fill:#ffffff; stroke:#ffffff; stroke-width:1" width="188" x="222" y="768"/>
<text style="font-family:Dialog; font-size:10;" x="276" y="781">
AvanzarDerecha</text>
<rect height="47" style="fill:#ffffff; stroke:#ffffff; stroke-width:1" width="187" x="223" y="810"/>
<line style="fill:#000000; stroke:#000000; stroke-width:1" x1="223" x2="410" y1="810" y2="810"/>
<text style="font-family:Dialog; font-size:10;" x="226" y="824">
&lt;&lt;create&gt;&gt; AvanzarDerecha() : void</text>
<text style="font-family:Dialog; font-size:10;" x="226" y="837">
ejecutar(amb : Ambiente) : void</text>
<text style="font-family:Dialog; font-size:10;" x="226" y="850">
getTipoAccion() : String</text>
<rect height="20" style="fill:#ffffff; stroke:#ffffff; stroke-width:1" width="187" x="223" y="789"/>
<line style="fill:#000000; stroke:#000000; stroke-width:1" x1="223" x2="410" y1="789" y2="789"/>
<rect height="91" style="fill: none; stroke:#000000; stroke-width:1" width="188" x="222" y="766"/>
<polyline points="334,766 334,726 382,726 382,671" style="fill:none; stroke:#000000; stroke-width:1"/>
<polygon points="382,671 389,683 375,683" style="fill:#ffffff; stroke:#ffffff; stroke-width:1"/>
<polygon points="382,671 389,683 375,683" style="fill:none; stroke:#000000; stroke-width:1"/>
<rect height="91" style="fill:#ffffff; stroke:#ffffff; stroke-width:1" width="194" x="606" y="766"/>
<rect height="2" style="fill:#ffffff; stroke:#ffffff; stroke-width:1" width="194" x="606" y="766"/>
<rect height="2" style="fill: none; stroke:#000000; stroke-width:1" width="194" x="606" y="766"/>
<rect height="20" style="fill:#ffffff; stroke:#ffffff; stroke-width:1" width="194" x="606" y="768"/>
<text style="font-family:Dialog; font-size:10;" x="660" y="781">
AvanzarIzquierda</text>
<rect height="47" style="fill:#ffffff; stroke:#ffffff; stroke-width:1" width="193" x="607" y="810"/>
<line style="fill:#000000; stroke:#000000; stroke-width:1" x1="607" x2="800" y1="810" y2="810"/>
<text style="font-family:Dialog; font-size:10;" x="610" y="824">
&lt;&lt;create&gt;&gt; AvanzarIzquierda() : void</text>
<text style="font-family:Dialog; font-size:10;" x="610" y="837">
ejecutar(amb : Ambiente) : void</text>
<text style="font-family:Dialog; font-size:10;" x="610" y="850">
getTipoAccion() : String</text>
<rect height="20" style="fill:#ffffff; stroke:#ffffff; stroke-width:1" width="193" x="607" y="789"/>
<line style="fill:#000000; stroke:#000000; stroke-width:1" x1="607" x2="800" y1="789" y2="789"/>
<rect height="91" style="fill: none; stroke:#000000; stroke-width:1" width="194" x="606" y="766"/>
<polyline points="678,766 678,726 382,726 382,671" style="fill:none; stroke:#000000; stroke-width:1"/>
<polygon points="382,671 389,683 375,683" style="fill:#ffffff; stroke:#ffffff; stroke-width:1"/>
<polygon points="382,671 389,683 375,683" style="fill:none; stroke:#000000; stroke-width:1"/>
<rect height="91" style="fill:#ffffff; stroke:#ffffff; stroke-width:1" width="178" x="414" y="766"/>
<rect height="2" style="fill:#ffffff; stroke:#ffffff; stroke-width:1" width="178" x="414" y="766"/>
<rect height="2" style="fill: none; stroke:#000000; stroke-width:1" width="178" x="414" y="766"/>
<rect height="20" style="fill:#ffffff; stroke:#ffffff; stroke-width:1" width="178" x="414" y="768"/>
<text style="font-family:Dialog; font-size:10;" x="468" y="781">
AvanzarArriba</text>
<rect height="47" style="fill:#ffffff; stroke:#ffffff; stroke-width:1" width="177" x="415" y="810"/>
<line style="fill:#000000; stroke:#000000; stroke-width:1" x1="415" x2="592" y1="810" y2="810"/>
<text style="font-family:Dialog; font-size:10;" x="418" y="824">
&lt;&lt;create&gt;&gt; AvanzarArriba() : void</text>
<text style="font-family:Dialog; font-size:10;" x="418" y="837">
ejecutar(amb : Ambiente) : void</text>
<text style="font-family:Dialog; font-size:10;" x="418" y="850">
getTipoAccion() : String</text>
<rect height="20" style="fill:#ffffff; stroke:#ffffff; stroke-width:1" width="177" x="415" y="789"/>
<line style="fill:#000000; stroke:#000000; stroke-width:1" x1="415" x2="592" y1="789" y2="789"/>
<rect height="91" style="fill: none; stroke:#000000; stroke-width:1" width="178" x="414" y="766"/>
<polyline points="470,766 470,726 382,726 382,671" style="fill:none; stroke:#000000; stroke-width:1"/>
<polygon points="382,671 389,683 375,683" style="fill:#ffffff; stroke:#ffffff; stroke-width:1"/>
<polygon points="382,671 389,683 375,683" style="fill:none; stroke:#000000; stroke-width:1"/>
<rect height="78" style="fill:#ffffff; stroke:#ffffff; stroke-width:1" width="123" x="942" y="262"/>
<rect height="2" style="fill:#ffffff; stroke:#ffffff; stroke-width:1" width="123" x="942" y="262"/>
<rect height="2" style="fill: none; stroke:#000000; stroke-width:1" width="123" x="942" y="262"/>
<rect height="20" style="fill:#ffffff; stroke:#ffffff; stroke-width:1" width="123" x="942" y="264"/>
<text style="font-family:Dialog; font-size:10;" x="987" y="277">
Estado</text>
<rect height="20" style="fill:#ffffff; stroke:#ffffff; stroke-width:1" width="122" x="943" y="320"/>
<line style="fill:#000000; stroke:#000000; stroke-width:1" x1="943" x2="1065" y1="320" y2="320"/>
<rect height="34" style="fill:#ffffff; stroke:#ffffff; stroke-width:1" width="122" x="943" y="285"/>
<line style="fill:#000000; stroke:#000000; stroke-width:1" x1="943" x2="1065" y1="285" y2="285"/>
<text style="font-family:Dialog; font-size:10;" x="946" y="299">
energia : Float</text>
<text style="font-family:Dialog; font-size:10;" x="946" y="312">
energiaPromedio : Float</text>
<rect height="78" style="fill: none; stroke:#000000; stroke-width:1" width="123" x="942" y="262"/>
<polyline points="808,286 942,286" style="fill:none; stroke:#000000; stroke-width:1"/>
<polygon points="808,286 818,281 828,286 818,291" style="fill:#000000; stroke:#000000; stroke-width:1"/>
<polygon points="808,286 818,281 828,286 818,291" style="fill:none; stroke:#000000; stroke-width:1"/>
<line style="fill:#000000; stroke:#000000; stroke-width:1" x1="930" x2="942" y1="293" y2="286"/>
<line style="fill:#000000; stroke:#000000; stroke-width:1" x1="930" x2="942" y1="279" y2="286"/>
<text style="font-family:Dialog; font-size:10;" x="820" y="276">
1</text>
<text style="font-family:Dialog; font-size:10;" x="924" y="276">
1</text>
<line style="fill:#000000; stroke:#000000; stroke-width:1" x1="654" x2="649" y1="326" y2="326"/>
<line style="fill:#000000; stroke:#000000; stroke-width:1" x1="644" x2="639" y1="326" y2="326"/>
<line style="fill:#000000; stroke:#000000; stroke-width:1" x1="634" x2="629" y1="326" y2="326"/>
<line style="fill:#000000; stroke:#000000; stroke-width:1" x1="624" x2="619" y1="326" y2="326"/>
<line style="fill:#000000; stroke:#000000; stroke-width:1" x1="614" x2="609" y1="326" y2="326"/>
<line style="fill:#000000; stroke:#000000; stroke-width:1" x1="604" x2="599" y1="326" y2="326"/>
<line style="fill:#000000; stroke:#000000; stroke-width:1" x1="598" x2="598" y1="326" y2="331"/>
<line style="fill:#000000; stroke:#000000; stroke-width:1" x1="598" x2="598" y1="336" y2="341"/>
<line style="fill:#000000; stroke:#000000; stroke-width:1" x1="598" x2="598" y1="346" y2="351"/>
<line style="fill:#000000; stroke:#000000; stroke-width:1" x1="598" x2="598" y1="356" y2="361"/>
<line style="fill:#000000; stroke:#000000; stroke-width:1" x1="598" x2="598" y1="366" y2="371"/>
<line style="fill:#000000; stroke:#000000; stroke-width:1" x1="598" x2="598" y1="376" y2="381"/>
<line style="fill:#000000; stroke:#000000; stroke-width:1" x1="598" x2="598" y1="386" y2="391"/>
<line style="fill:#000000; stroke:#000000; stroke-width:1" x1="598" x2="598" y1="396" y2="401"/>
<line style="fill:#000000; stroke:#000000; stroke-width:1" x1="591" x2="598" y1="394" y2="406"/>
<line style="fill:#000000; stroke:#000000; stroke-width:1" x1="605" x2="598" y1="394" y2="406"/>
<text style="font-family:Dialog; font-size:10;" x="641" y="351">
&lt;&lt;crea&gt;&gt;</text>
<line style="fill:#000000; stroke:#000000; stroke-width:1" x1="398" x2="398" y1="319" y2="324"/>
<line style="fill:#000000; stroke:#000000; stroke-width:1" x1="398" x2="398" y1="329" y2="334"/>
<line style="fill:#000000; stroke:#000000; stroke-width:1" x1="398" x2="398" y1="339" y2="344"/>
<line style="fill:#000000; stroke:#000000; stroke-width:1" x1="398" x2="398" y1="349" y2="354"/>
<line style="fill:#000000; stroke:#000000; stroke-width:1" x1="398" x2="398" y1="359" y2="364"/>
<line style="fill:#000000; stroke:#000000; stroke-width:1" x1="398" x2="398" y1="369" y2="374"/>
<line style="fill:#000000; stroke:#000000; stroke-width:1" x1="398" x2="398" y1="379" y2="384"/>
<line style="fill:#000000; stroke:#000000; stroke-width:1" x1="398" x2="398" y1="389" y2="394"/>
<line style="fill:#000000; stroke:#000000; stroke-width:1" x1="398" x2="398" y1="399" y2="404"/>
<line style="fill:#000000; stroke:#000000; stroke-width:1" x1="398" x2="398" y1="409" y2="414"/>
<line style="fill:#000000; stroke:#000000; stroke-width:1" x1="398" x2="398" y1="419" y2="424"/>
<line style="fill:#000000; stroke:#000000; stroke-width:1" x1="398" x2="398" y1="429" y2="430"/>
<line style="fill:#000000; stroke:#000000; stroke-width:1" x1="398" x2="403" y1="430" y2="430"/>
<line style="fill:#000000; stroke:#000000; stroke-width:1" x1="408" x2="413" y1="430" y2="430"/>
<line style="fill:#000000; stroke:#000000; stroke-width:1" x1="418" x2="423" y1="430" y2="430"/>
<line style="fill:#000000; stroke:#000000; stroke-width:1" x1="428" x2="433" y1="430" y2="430"/>
<line style="fill:#000000; stroke:#000000; stroke-width:1" x1="438" x2="443" y1="430" y2="430"/>
<line style="fill:#000000; stroke:#000000; stroke-width:1" x1="448" x2="453" y1="430" y2="430"/>
<line style="fill:#000000; stroke:#000000; stroke-width:1" x1="458" x2="463" y1="430" y2="430"/>
<line style="fill:#000000; stroke:#000000; stroke-width:1" x1="468" x2="473" y1="430" y2="430"/>
<line style="fill:#000000; stroke:#000000; stroke-width:1" x1="478" x2="483" y1="430" y2="430"/>
<line style="fill:#000000; stroke:#000000; stroke-width:1" x1="488" x2="493" y1="430" y2="430"/>
<line style="fill:#000000; stroke:#000000; stroke-width:1" x1="482" x2="494" y1="437" y2="430"/>
<line style="fill:#000000; stroke:#000000; stroke-width:1" x1="482" x2="494" y1="423" y2="430"/>
<text style="font-family:Dialog; font-size:10;" x="436" y="435">
&lt;&lt;utiliza&gt;&gt;</text>
<rect height="64" style="fill:#ffffff; stroke:#ffffff; stroke-width:1" width="90" x="942" y="126"/>
<rect height="2" style="fill:#ffffff; stroke:#ffffff; stroke-width:1" width="90" x="942" y="126"/>
<rect height="2" style="fill: none; stroke:#000000; stroke-width:1" width="90" x="942" y="126"/>
<rect height="20" style="fill:#ffffff; stroke:#ffffff; stroke-width:1" width="90" x="942" y="128"/>
<text style="font-family:Dialog; font-size:10;" x="948" y="141">
VisionAmbiente</text>
<rect height="20" style="fill:#ffffff; stroke:#ffffff; stroke-width:1" width="89" x="943" y="170"/>
<line style="fill:#000000; stroke:#000000; stroke-width:1" x1="943" x2="1032" y1="170" y2="170"/>
<rect height="20" style="fill:#ffffff; stroke:#ffffff; stroke-width:1" width="89" x="943" y="149"/>
<line style="fill:#000000; stroke:#000000; stroke-width:1" x1="943" x2="1032" y1="149" y2="149"/>
<rect height="64" style="fill: none; stroke:#000000; stroke-width:1" width="90" x="942" y="126"/>
<polyline points="998,262 998,190" style="fill:none; stroke:#000000; stroke-width:1"/>
<polygon points="998,262 993,252 998,242 1003,252" style="fill:#000000; stroke:#000000; stroke-width:1"/>
<polygon points="998,262 993,252 998,242 1003,252" style="fill:none; stroke:#000000; stroke-width:1"/>
<line style="fill:#000000; stroke:#000000; stroke-width:1" x1="1005" x2="998" y1="202" y2="190"/>
<line style="fill:#000000; stroke:#000000; stroke-width:1" x1="991" x2="998" y1="202" y2="190"/>
<text style="font-family:Dialog; font-size:10;" x="980" y="252">
1</text>
<text style="font-family:Dialog; font-size:10;" x="980" y="210">
1</text>
<rect height="60" style="fill:#ffffff; stroke:#ffffff; stroke-width:1" width="82" x="526" y="14"/>
<rect height="15" style="fill:#ffffff; stroke:#ffffff; stroke-width:1" width="82" x="526" y="14"/>
<rect height="15" style="fill: none; stroke:#000000; stroke-width:1" width="82" x="526" y="14"/>
<text style="font-family:Dialog; font-size:10;" x="529" y="28">
&lt;&lt;interface&gt;&gt;</text>
<rect height="20" style="fill:#ffffff; stroke:#ffffff; stroke-width:1" width="82" x="526" y="29"/>
<text style="font-family:Dialog; font-size:10;" x="543" y="42">
Ambiente</text>
<rect height="23" style="fill:#ffffff; stroke:#ffffff; stroke-width:1" width="81" x="527" y="50"/>
<line style="fill:#000000; stroke:#000000; stroke-width:1" x1="527" x2="608" y1="50" y2="50"/>
<rect height="60" style="fill: none; stroke:#000000; stroke-width:1" width="82" x="526" y="14"/>
<rect height="64" style="fill:#ffffff; stroke:#ffffff; stroke-width:1" width="90" x="230" y="150"/>
<rect height="2" style="fill:#ffffff; stroke:#ffffff; stroke-width:1" width="90" x="230" y="150"/>
<rect height="2" style="fill: none; stroke:#000000; stroke-width:1" width="90" x="230" y="150"/>
<rect height="20" style="fill:#ffffff; stroke:#ffffff; stroke-width:1" width="90" x="230" y="152"/>
<text style="font-family:Dialog; font-size:10;" x="241" y="165">
AmbienteReal</text>
<rect height="20" style="fill:#ffffff; stroke:#ffffff; stroke-width:1" width="89" x="231" y="194"/>
<line style="fill:#000000; stroke:#000000; stroke-width:1" x1="231" x2="320" y1="194" y2="194"/>
<rect height="20" style="fill:#ffffff; stroke:#ffffff; stroke-width:1" width="89" x="231" y="173"/>
<line style="fill:#000000; stroke:#000000; stroke-width:1" x1="231" x2="320" y1="173" y2="173"/>
<rect height="64" style="fill: none; stroke:#000000; stroke-width:1" width="90" x="230" y="150"/>
<polyline points="278,150 278,46 526,46" style="fill:none; stroke:#000000; stroke-width:1"/>
<polygon points="526,46 514,53 514,39" style="fill:#ffffff; stroke:#ffffff; stroke-width:1"/>
<polygon points="526,46 514,53 514,39" style="fill:none; stroke:#000000; stroke-width:1"/>
<polyline points="358,254 320,214" style="fill:none; stroke:#000000; stroke-width:1"/>
<line style="fill:#000000; stroke:#000000; stroke-width:1" x1="333" x2="320" y1="217" y2="214"/>
<line style="fill:#000000; stroke:#000000; stroke-width:1" x1="323" x2="320" y1="227" y2="214"/>
<text style="font-family:Dialog; font-size:10;" x="335" y="259">
1</text>
<text style="font-family:Dialog; font-size:10;" x="318" y="240">
1</text>
<polyline points="982,126 982,54 608,54" style="fill:none; stroke:#000000; stroke-width:1"/>
<polygon points="608,54 620,47 620,61" style="fill:#ffffff; stroke:#ffffff; stroke-width:1"/>
<polygon points="608,54 620,47 620,61" style="fill:none; stroke:#000000; stroke-width:1"/>
<polygon points="910,734 1039,734 1049,744 1049,791 910,791 910,734" style="fill:#ffffc8; stroke:#ffffc8; stroke-width:1"/>
<polyline points="910,734 1039,734 1049,744 1049,791 910,791 910,734" style="fill:none; stroke:#000000; stroke-width:1"/>
<polygon points="1039,734 1049,744 1039,744 1039,734" style="fill:#b2b28c; stroke:#b2b28c; stroke-width:1"/>
<polyline points="1039,734 1049,744 1039,744 1039,734" style="fill:none; stroke:#000000; stroke-width:1"/>
<text style="font-family:Dialog; font-size:10;" x="912" y="749">
Estas clases son Singleton</text>
<line style="fill:#000000; stroke:#000000; stroke-width:1" x1="910" x2="906" y1="734" y2="734"/>
<line style="fill:#000000; stroke:#000000; stroke-width:1" x1="901" x2="896" y1="733" y2="732"/>
<line style="fill:#000000; stroke:#000000; stroke-width:1" x1="891" x2="886" y1="732" y2="731"/>
<line style="fill:#000000; stroke:#000000; stroke-width:1" x1="881" x2="876" y1="730" y2="730"/>
<line style="fill:#000000; stroke:#000000; stroke-width:1" x1="871" x2="866" y1="729" y2="728"/>
<line style="fill:#000000; stroke:#000000; stroke-width:1" x1="861" x2="856" y1="728" y2="727"/>
<line style="fill:#000000; stroke:#000000; stroke-width:1" x1="851" x2="846" y1="726" y2="725"/>
<line style="fill:#000000; stroke:#000000; stroke-width:1" x1="841" x2="836" y1="725" y2="724"/>
<line style="fill:#000000; stroke:#000000; stroke-width:1" x1="831" x2="826" y1="723" y2="723"/>
<line style="fill:#000000; stroke:#000000; stroke-width:1" x1="821" x2="816" y1="722" y2="721"/>
<line style="fill:#000000; stroke:#000000; stroke-width:1" x1="811" x2="806" y1="721" y2="720"/>
<line style="fill:#000000; stroke:#000000; stroke-width:1" x1="801" x2="797" y1="719" y2="718"/>
<line style="fill:#000000; stroke:#000000; stroke-width:1" x1="792" x2="787" y1="718" y2="717"/>
<line style="fill:#000000; stroke:#000000; stroke-width:1" x1="782" x2="777" y1="716" y2="716"/>
<line style="fill:#000000; stroke:#000000; stroke-width:1" x1="772" x2="767" y1="715" y2="714"/>
<line style="fill:#000000; stroke:#000000; stroke-width:1" x1="762" x2="757" y1="714" y2="713"/>
<line style="fill:#000000; stroke:#000000; stroke-width:1" x1="752" x2="747" y1="712" y2="712"/>
<line style="fill:#000000; stroke:#000000; stroke-width:1" x1="742" x2="737" y1="711" y2="710"/>
<line style="fill:#000000; stroke:#000000; stroke-width:1" x1="732" x2="727" y1="709" y2="709"/>
<line style="fill:#000000; stroke:#000000; stroke-width:1" x1="722" x2="717" y1="708" y2="707"/>
<line style="fill:#000000; stroke:#000000; stroke-width:1" x1="712" x2="707" y1="707" y2="706"/>
<line style="fill:#000000; stroke:#000000; stroke-width:1" x1="702" x2="697" y1="705" y2="705"/>
<line style="fill:#000000; stroke:#000000; stroke-width:1" x1="692" x2="687" y1="704" y2="703"/>
<line style="fill:#000000; stroke:#000000; stroke-width:1" x1="683" x2="678" y1="702" y2="702"/>
<line style="fill:#000000; stroke:#000000; stroke-width:1" x1="673" x2="668" y1="701" y2="700"/>
<line style="fill:#000000; stroke:#000000; stroke-width:1" x1="663" x2="658" y1="700" y2="699"/>
<line style="fill:#000000; stroke:#000000; stroke-width:1" x1="653" x2="648" y1="698" y2="698"/>
<line style="fill:#000000; stroke:#000000; stroke-width:1" x1="643" x2="638" y1="697" y2="696"/>
<line style="fill:#000000; stroke:#000000; stroke-width:1" x1="633" x2="628" y1="695" y2="695"/>
<line style="fill:#000000; stroke:#000000; stroke-width:1" x1="623" x2="618" y1="694" y2="693"/>
<line style="fill:#000000; stroke:#000000; stroke-width:1" x1="613" x2="608" y1="693" y2="692"/>
<line style="fill:#000000; stroke:#000000; stroke-width:1" x1="603" x2="598" y1="691" y2="691"/>
<line style="fill:#000000; stroke:#000000; stroke-width:1" x1="593" x2="588" y1="690" y2="689"/>
<line style="fill:#000000; stroke:#000000; stroke-width:1" x1="583" x2="578" y1="689" y2="688"/>
<line style="fill:#000000; stroke:#000000; stroke-width:1" x1="574" x2="569" y1="687" y2="686"/>
<line style="fill:#000000; stroke:#000000; stroke-width:1" x1="564" x2="559" y1="686" y2="685"/>
<line style="fill:#000000; stroke:#000000; stroke-width:1" x1="554" x2="549" y1="684" y2="684"/>
<line style="fill:#000000; stroke:#000000; stroke-width:1" x1="544" x2="539" y1="683" y2="682"/>
<line style="fill:#000000; stroke:#000000; stroke-width:1" x1="534" x2="529" y1="682" y2="681"/>
<line style="fill:#000000; stroke:#000000; stroke-width:1" x1="524" x2="519" y1="680" y2="679"/>
<line style="fill:#000000; stroke:#000000; stroke-width:1" x1="514" x2="509" y1="679" y2="678"/>
<line style="fill:#000000; stroke:#000000; stroke-width:1" x1="504" x2="499" y1="677" y2="677"/>
<line style="fill:#000000; stroke:#000000; stroke-width:1" x1="494" x2="489" y1="676" y2="675"/>
<line style="fill:#000000; stroke:#000000; stroke-width:1" x1="484" x2="479" y1="675" y2="674"/>
<line style="fill:#000000; stroke:#000000; stroke-width:1" x1="474" x2="469" y1="673" y2="672"/>
<line style="fill:#000000; stroke:#000000; stroke-width:1" x1="464" x2="462" y1="672" y2="671"/>
<line style="fill:#000000; stroke:#000000; stroke-width:1" x1="910" x2="906" y1="734" y2="733"/>
<line style="fill:#000000; stroke:#000000; stroke-width:1" x1="901" x2="896" y1="731" y2="729"/>
<line style="fill:#000000; stroke:#000000; stroke-width:1" x1="892" x2="887" y1="727" y2="726"/>
<line style="fill:#000000; stroke:#000000; stroke-width:1" x1="882" x2="878" y1="724" y2="722"/>
<line style="fill:#000000; stroke:#000000; stroke-width:1" x1="873" x2="868" y1="720" y2="719"/>
<line style="fill:#000000; stroke:#000000; stroke-width:1" x1="864" x2="859" y1="717" y2="715"/>
<line style="fill:#000000; stroke:#000000; stroke-width:1" x1="854" x2="850" y1="713" y2="711"/>
<line style="fill:#000000; stroke:#000000; stroke-width:1" x1="845" x2="840" y1="710" y2="708"/>
<line style="fill:#000000; stroke:#000000; stroke-width:1" x1="836" x2="831" y1="706" y2="704"/>
<line style="fill:#000000; stroke:#000000; stroke-width:1" x1="826" x2="822" y1="703" y2="701"/>
<line style="fill:#000000; stroke:#000000; stroke-width:1" x1="817" x2="812" y1="699" y2="697"/>
<line style="fill:#000000; stroke:#000000; stroke-width:1" x1="808" x2="803" y1="695" y2="694"/>
<line style="fill:#000000; stroke:#000000; stroke-width:1" x1="798" x2="794" y1="692" y2="690"/>
<line style="fill:#000000; stroke:#000000; stroke-width:1" x1="789" x2="784" y1="688" y2="687"/>
<line style="fill:#000000; stroke:#000000; stroke-width:1" x1="780" x2="775" y1="685" y2="683"/>
<line style="fill:#000000; stroke:#000000; stroke-width:1" x1="770" x2="765" y1="681" y2="679"/>
<line style="fill:#000000; stroke:#000000; stroke-width:1" x1="761" x2="756" y1="678" y2="676"/>
<line style="fill:#000000; stroke:#000000; stroke-width:1" x1="751" x2="747" y1="674" y2="672"/>
<line style="fill:#000000; stroke:#000000; stroke-width:1" x1="742" x2="737" y1="671" y2="669"/>
<line style="fill:#000000; stroke:#000000; stroke-width:1" x1="733" x2="728" y1="667" y2="665"/>
<line style="fill:#000000; stroke:#000000; stroke-width:1" x1="723" x2="719" y1="664" y2="662"/>
<line style="fill:#000000; stroke:#000000; stroke-width:1" x1="714" x2="709" y1="660" y2="658"/>
<line style="fill:#000000; stroke:#000000; stroke-width:1" x1="705" x2="700" y1="656" y2="655"/>
<line style="fill:#000000; stroke:#000000; stroke-width:1" x1="695" x2="691" y1="653" y2="651"/>
<line style="fill:#000000; stroke:#000000; stroke-width:1" x1="686" x2="681" y1="649" y2="648"/>
<line style="fill:#000000; stroke:#000000; stroke-width:1" x1="910" x2="908" y1="734" y2="730"/>
<line style="fill:#000000; stroke:#000000; stroke-width:1" x1="906" x2="903" y1="726" y2="721"/>
<line style="fill:#000000; stroke:#000000; stroke-width:1" x1="901" x2="898" y1="717" y2="712"/>
<line style="fill:#000000; stroke:#000000; stroke-width:1" x1="896" x2="894" y1="708" y2="704"/>
<line style="fill:#000000; stroke:#000000; stroke-width:1" x1="891" x2="889" y1="699" y2="695"/>
<line style="fill:#000000; stroke:#000000; stroke-width:1" x1="886" x2="884" y1="690" y2="686"/>
<line style="fill:#000000; stroke:#000000; stroke-width:1" x1="882" x2="879" y1="682" y2="677"/>
<line style="fill:#000000; stroke:#000000; stroke-width:1" x1="877" x2="874" y1="673" y2="668"/>
<line style="fill:#000000; stroke:#000000; stroke-width:1" x1="872" x2="870" y1="664" y2="659"/>
<line style="fill:#000000; stroke:#000000; stroke-width:1" x1="867" x2="865" y1="655" y2="651"/>
<line style="fill:#000000; stroke:#000000; stroke-width:1" x1="862" x2="861" y1="646" y2="644"/>
</svg>
